<svg width="40" height="40" viewBox="0 0 40 40" fill="none" xmlns="http://www.w3.org/2000/svg">
<g id="call">
<path id="Vector" d="M32.3997 21.6671C32.033 21.6671 31.6497 21.5504 31.283 21.4671C30.5405 21.3035 29.8108 21.0862 29.0997 20.8171C28.3265 20.5358 27.4766 20.5504 26.7135 20.8581C25.9505 21.1658 25.3282 21.7448 24.9663 22.4838L24.5997 23.2338C22.9764 22.3307 21.4847 21.2092 20.1663 19.9004C18.8576 18.5821 17.7361 17.0904 16.833 15.4671L17.533 15.0004C18.272 14.6386 18.851 14.0163 19.1587 13.2533C19.4664 12.4902 19.481 11.6403 19.1997 10.8671C18.9351 10.1545 18.7179 9.42509 18.5497 8.68376C18.4663 8.3171 18.3997 7.93377 18.3497 7.55043C18.1473 6.37646 17.5324 5.31333 16.6157 4.5525C15.699 3.79166 14.5408 3.38311 13.3497 3.40043H8.34968C7.6314 3.39369 6.9201 3.54179 6.2642 3.83465C5.6083 4.12751 5.0232 4.55826 4.54873 5.09757C4.07426 5.63688 3.72157 6.27209 3.51466 6.95995C3.30775 7.64782 3.25148 8.3722 3.34968 9.08376C4.23758 16.0661 7.42639 22.5536 12.4124 27.5215C17.3985 32.4894 23.8975 35.6546 30.883 36.5171H31.5163C32.7454 36.5189 33.932 36.068 34.8497 35.2504C35.377 34.7788 35.7982 34.2007 36.0855 33.5543C36.3728 32.9079 36.5196 32.2078 36.5163 31.5004V26.5004C36.4959 25.3427 36.0744 24.228 35.3236 23.3465C34.5728 22.4651 33.5394 21.8715 32.3997 21.6671ZM33.233 31.6671C33.2327 31.9037 33.182 32.1376 33.0843 32.3531C32.9866 32.5687 32.8441 32.7609 32.6663 32.9171C32.4801 33.0779 32.2624 33.198 32.027 33.2698C31.7917 33.3415 31.5439 33.3633 31.2997 33.3338C25.0578 32.5334 19.2601 29.6779 14.8209 25.2176C10.3817 20.7573 7.5537 14.946 6.78301 8.70043C6.75649 8.4563 6.77973 8.20932 6.85135 7.97442C6.92297 7.73952 7.04146 7.52158 7.19968 7.33377C7.35586 7.15598 7.54811 7.0135 7.76364 6.91579C7.97917 6.81809 8.21304 6.7674 8.44968 6.7671H13.4497C13.8373 6.75847 14.2157 6.88523 14.5199 7.12555C14.8241 7.36587 15.035 7.70471 15.1163 8.08376C15.183 8.53932 15.2663 8.98932 15.3663 9.43376C15.5589 10.3123 15.8151 11.1757 16.133 12.0171L13.7997 13.1004C13.6002 13.192 13.4207 13.322 13.2716 13.4831C13.1225 13.6442 13.0067 13.8331 12.9308 14.0391C12.8549 14.2451 12.8205 14.464 12.8294 14.6833C12.8384 14.9026 12.8906 15.118 12.983 15.3171C15.3817 20.455 19.5118 24.5851 24.6497 26.9838C25.0554 27.1505 25.5106 27.1505 25.9163 26.9838C26.1242 26.9094 26.3152 26.7945 26.4783 26.6457C26.6414 26.497 26.7733 26.3173 26.8663 26.1171L27.8997 23.7838C28.7613 24.0919 29.6407 24.3479 30.533 24.5504C30.9775 24.6504 31.4275 24.7338 31.883 24.8004C32.2621 24.8817 32.6009 25.0927 32.8412 25.3969C33.0815 25.7011 33.2083 26.0795 33.1997 26.4671L33.233 31.6671Z" fill="black"/>
</g>
</svg>
