<svg width="50" height="50" viewBox="0 0 50 50" fill="none" xmlns="http://www.w3.org/2000/svg">
<g id="fi-rr-map-marker-home" clip-path="url(#clip0_1491_2555)">
<path id="Vector" d="M25.0001 0C20.4607 0.000102873 16.0236 1.34836 12.2515 3.87379C8.47935 6.39921 5.54225 9.98801 3.81264 14.185C2.08304 18.3821 1.63887 22.9982 2.53646 27.448C3.43405 31.8978 5.63296 35.9808 8.85431 39.1792L17.0689 46.7646C19.1803 48.8314 22.0152 49.9923 24.9698 50.0001C27.9244 50.0079 30.7654 48.8619 32.8876 46.8063L41.2043 39.1208C44.4091 35.9159 46.5916 31.8326 47.4758 27.3873C48.36 22.942 47.9061 18.3343 46.1717 14.1469C44.4373 9.95955 41.5001 6.38051 37.7316 3.86239C33.9631 1.34426 29.5325 0.000143873 25.0001 0V0ZM38.3168 36.1188L30.0168 43.7875C28.6521 45.0733 26.8458 45.7863 24.9708 45.7793C23.0957 45.7723 21.2949 45.0459 19.9397 43.75L11.7418 36.175C9.5615 33.9947 7.95255 31.3103 7.05749 28.3596C6.16242 25.4089 6.00887 22.283 6.61043 19.2588C7.21198 16.2346 8.55009 13.4055 10.5062 11.0219C12.4623 8.63841 14.9761 6.77408 17.8248 5.5941C20.6735 4.41411 23.7693 3.95489 26.8379 4.25711C29.9065 4.55933 32.8532 5.61367 35.417 7.32672C37.9808 9.03978 40.0826 11.3587 41.5361 14.078C42.9897 16.7974 43.7501 19.8332 43.7501 22.9167C43.7593 25.3667 43.284 27.7944 42.3515 30.0602C41.4191 32.3259 40.0479 34.3849 38.3168 36.1188ZM34.8126 15.9646L28.5626 11.6292C27.5155 10.9056 26.2729 10.5181 25.0001 10.5181C23.7274 10.5181 22.4848 10.9056 21.4376 11.6292L15.1876 15.9646C14.3583 16.5399 13.6806 17.3076 13.2126 18.2019C12.7446 19.0962 12.5001 20.0906 12.5001 21.1V28.125C12.5001 29.5063 13.0489 30.8311 14.0256 31.8078C15.0024 32.7846 16.3271 33.3333 17.7085 33.3333H32.2918C33.6731 33.3333 34.9979 32.7846 35.9747 31.8078C36.9514 30.8311 37.5001 29.5063 37.5001 28.125V21.1C37.5002 20.0906 37.2557 19.0962 36.7877 18.2019C36.3197 17.3076 35.642 16.5399 34.8126 15.9646ZM33.3335 28.125C33.3335 28.4013 33.2237 28.6662 33.0284 28.8616C32.833 29.0569 32.5681 29.1667 32.2918 29.1667H29.1668V25C29.1668 24.4475 28.9473 23.9176 28.5566 23.5269C28.1659 23.1362 27.636 22.9167 27.0835 22.9167H22.9168C22.3643 22.9167 21.8344 23.1362 21.4437 23.5269C21.053 23.9176 20.8335 24.4475 20.8335 25V29.1667H17.7085C17.4322 29.1667 17.1673 29.0569 16.9719 28.8616C16.7766 28.6662 16.6668 28.4013 16.6668 28.125V21.1C16.6667 20.7634 16.7481 20.4318 16.9041 20.1336C17.0601 19.8354 17.2861 19.5794 17.5626 19.3875L23.8126 15.0521C24.162 14.8118 24.5761 14.6832 25.0001 14.6832C25.4242 14.6832 25.8382 14.8118 26.1876 15.0521L32.4376 19.3875C32.7142 19.5794 32.9401 19.8354 33.0962 20.1336C33.2522 20.4318 33.3336 20.7634 33.3335 21.1V28.125Z" fill="#374957"/>
</g>
<defs>
<clipPath id="clip0_1491_2555">
<rect width="50" height="50" fill="white"/>
</clipPath>
</defs>
</svg>
