<svg width="40" height="40" viewBox="0 0 40 40" fill="none" xmlns="http://www.w3.org/2000/svg">
<g id="whatsapp 1" clip-path="url(#clip0_1491_2545)">
<path id="Vector" d="M34.1717 5.81282C30.4115 2.06655 25.4115 0.00228568 20.0843 0C9.10694 0 0.173547 8.89125 0.169152 19.8199C0.167873 23.3132 1.08468 26.7233 2.82728 29.7291L0.00195312 40L10.5592 37.2439C13.468 38.8233 16.743 39.6555 20.0758 39.6568H20.0842H20.0843C31.06 39.6568 39.9947 30.764 39.9994 19.8359C40.0012 14.5394 37.9315 9.55935 34.1717 5.81282ZM20.0843 36.3092H20.0779C17.1072 36.3076 14.194 35.5136 11.6531 34.0124L11.0484 33.6555L4.78345 35.2909L6.4561 29.2117L6.06211 28.5885C4.40504 25.9653 3.53025 22.9339 3.53149 19.8211C3.53513 10.7376 10.9602 3.34778 20.0906 3.34778C24.512 3.34961 28.6676 5.06544 31.793 8.17922C34.9182 11.293 36.638 15.4323 36.6367 19.8345C36.6329 28.9183 29.2075 36.3092 20.0843 36.3092Z" fill="#E0E0E0"/>
<path id="Vector_2" d="M0.916016 38.8605L3.61228 29.0588C1.94886 26.1902 1.0741 22.9357 1.07515 19.6025C1.07951 9.17333 9.60491 0.688477 20.08 0.688477C25.164 0.690762 29.9357 2.66063 33.5234 6.23587C37.1118 9.81107 39.0868 14.5633 39.0847 19.6173C39.0804 30.0468 30.5544 38.5324 20.0807 38.5324C20.08 38.5324 20.0812 38.5324 20.0807 38.5324H20.0723C16.8917 38.5313 13.7665 37.7365 10.9908 36.2303L0.916016 38.8605Z" fill="url(#paint0_linear_1491_2545)"/>
<path id="Vector_3" fill-rule="evenodd" clip-rule="evenodd" d="M15.1631 11.4055C14.7946 10.5899 14.4067 10.5736 14.0562 10.5594C13.7695 10.5471 13.4412 10.5479 13.1135 10.5479C12.7856 10.5479 12.2526 10.6706 11.8019 11.1606C11.351 11.6507 10.0801 12.8353 10.0801 15.2447C10.0801 17.6544 11.8429 19.9827 12.0886 20.3097C12.3346 20.6363 15.4916 25.7387 20.4913 27.7017C24.6465 29.3331 25.4921 29.0086 26.394 28.927C27.2959 28.8453 29.3042 27.7425 29.7142 26.5989C30.1241 25.4556 30.1241 24.4755 30.0011 24.2706C29.8781 24.0665 29.5502 23.9441 29.0582 23.6992C28.5663 23.4543 26.148 22.2694 25.6971 22.1061C25.2461 21.9428 24.9181 21.8612 24.5902 22.3515C24.2622 22.8413 23.32 23.9441 23.0331 24.2706C22.7461 24.5979 22.4591 24.6387 21.9672 24.3938C21.4752 24.1482 19.891 23.6316 18.0116 21.9632C16.5493 20.6653 15.562 19.0622 15.275 18.572C14.9881 18.0822 15.2443 17.8169 15.491 17.5727C15.7119 17.3533 15.983 17.001 16.229 16.7151C16.4744 16.4291 16.5564 16.225 16.7204 15.8985C16.8844 15.5714 16.8024 15.2855 16.6794 15.0406C16.5564 14.7957 15.6005 12.3739 15.1631 11.4055Z" fill="white"/>
<path id="Vector_4" d="M34.008 5.75002C30.2909 2.04675 25.3483 0.00622459 20.0824 0.00390625C9.23093 0.00390625 0.400095 8.79308 0.395733 19.5962C0.394453 23.0495 1.30073 26.4204 3.02332 29.3918L0.230469 39.5447L10.6666 36.8202C13.5419 38.3814 16.7793 39.2041 20.0739 39.2054H20.0823H20.0824C30.932 39.2054 39.7641 30.4147 39.7687 19.612C39.7705 14.3764 37.7246 9.45355 34.008 5.75002ZM20.0824 35.8963H20.076C17.1394 35.8948 14.2596 35.1098 11.7478 33.6259L11.15 33.2731L4.95707 34.8897L6.61049 28.8803L6.22103 28.2643C4.58298 25.6712 3.71823 22.6745 3.71951 19.5975C3.72308 10.6183 11.0629 3.31332 20.0885 3.31332C24.4592 3.31511 28.5671 5.01125 31.6566 8.08929C34.7459 11.1673 36.446 15.2591 36.4447 19.6108C36.4409 28.5903 29.1007 35.8963 20.0824 35.8963Z" fill="white"/>
</g>
<defs>
<linearGradient id="paint0_linear_1491_2545" x1="20.0004" y1="38.8605" x2="20.0004" y2="0.68854" gradientUnits="userSpaceOnUse">
<stop stop-color="#20B038"/>
<stop offset="1" stop-color="#60D66A"/>
</linearGradient>
<clipPath id="clip0_1491_2545">
<rect width="40" height="40" fill="white"/>
</clipPath>
</defs>
</svg>
